<?xml version="1.0" standalone="no"?><!DOCTYPE svg PUBLIC "-//W3C//DTD SVG 1.1//EN" "http://www.w3.org/Graphics/SVG/1.1/DTD/svg11.dtd"><svg t="1661154547145" class="icon" viewBox="0 0 1024 1024" version="1.1" xmlns="http://www.w3.org/2000/svg" p-id="1994" xmlns:xlink="http://www.w3.org/1999/xlink"><defs><style type="text/css">@font-face { font-family: feedback-iconfont; src: url("//at.alicdn.com/t/font_1031158_u69w8yhxdu.woff2?t=1630033759944") format("woff2"), url("//at.alicdn.com/t/font_1031158_u69w8yhxdu.woff?t=1630033759944") format("woff"), url("//at.alicdn.com/t/font_1031158_u69w8yhxdu.ttf?t=1630033759944") format("truetype"); }
</style></defs><path d="M860.86121783 358.26858045c-5.34235117 4.19345751-99.09198197 56.98506843-99.09198196 174.45932911 0 135.85654183 119.25504519 183.93769493 122.81661184 185.08658857-0.5744456 2.98712102-18.95672674 65.83154093-62.9018652 129.93974505-39.11979003 56.35317753-80.07780987 112.70635755-142.34778418 112.70635759s-78.35447065-36.19011427-150.10281082-36.19011677c-70.08244372 0-94.9559673 37.33900797-151.88359286 37.33900796s-96.73675182-52.15972-142.46267234-116.21047891C182.21039952 770.03166347 139.4715976 653.13184839 139.4715976 542.20627292c0-177.96345287 115.69347859-272.28752927 229.60617262-272.28752927 60.48919225 0 110.92557299 39.69423806 148.89647182 39.69423806 36.19011427 0 92.54329429-42.10691106 161.41939909-42.10691351 26.07986002 0 119.82949079 2.41267545 181.52501951 90.76251225zM646.70764817 192.19616391c28.43509013-33.89232946 48.59815338-80.70970078 48.59815588-127.52707209 0-6.54868766-0.5744456-13.09737531-1.72333926-18.439724-46.30036857 1.72333926-101.50465492 30.84776557-134.70765062 69.39310997-26.13730531 29.69887193-50.43638322 76.57368612-50.43638079 124.02294832 0 7.12313326 1.14889363 14.2462665 1.78078208 16.65894196 2.98712102 0.5744456 7.69757883 1.14889363 12.4654844 1.14889115 41.53246547 0 93.74963078-27.91808737 123.96550549-65.25709531z" fill="#898989" p-id="1995"></path></svg>