<?xml version="1.0" standalone="no"?><!DOCTYPE svg PUBLIC "-//W3C//DTD SVG 1.1//EN" "http://www.w3.org/Graphics/SVG/1.1/DTD/svg11.dtd"><svg t="1661424032407" class="icon" viewBox="0 0 1820 1024" version="1.1" xmlns="http://www.w3.org/2000/svg" p-id="1678" xmlns:xlink="http://www.w3.org/1999/xlink"><defs><style type="text/css">@font-face { font-family: feedback-iconfont; src: url("//at.alicdn.com/t/font_1031158_u69w8yhxdu.woff2?t=1630033759944") format("woff2"), url("//at.alicdn.com/t/font_1031158_u69w8yhxdu.woff?t=1630033759944") format("woff"), url("//at.alicdn.com/t/font_1031158_u69w8yhxdu.ttf?t=1630033759944") format("truetype"); }
</style></defs><path d="M284.444444 593.066667l79.644445-116.622223v116.622223H284.444444z m79.644445-345.6L0 780.8h152.177778l55.466666-78.222222h157.866667v78.222222h129.422222V247.466667h-130.844444z m782.222222 237.511111c-17.066667 2.844444-36.977778 4.266667-75.377778 2.844444V369.777778c36.977778 0 56.888889-1.422222 73.955556 4.266666 17.066667 4.266667 31.288889 27.022222 34.133333 56.888889-2.844444 29.866667-14.222222 49.777778-32.711111 54.044445m-409.6 0c-17.066667 2.844444-36.977778 4.266667-75.377778 2.844444V369.777778c36.977778 0 56.888889-1.422222 73.955556 4.266666 17.066667 4.266667 31.288889 27.022222 34.133333 56.888889-2.844444 29.866667-14.222222 49.777778-32.711111 54.044445m604.444445-238.933334V768l-115.2-177.777778c68.266667-36.977778 89.6-92.444444 93.866666-170.666666-1.422222-45.511111-19.911111-103.822222-56.888889-132.266667-54.044444-39.822222-116.622222-39.822222-177.777777-39.822222H932.977778v519.111111l-115.2-176.355556c68.266667-36.977778 91.022222-91.022222 93.866666-170.666666-1.422222-45.511111-21.333333-103.822222-58.311111-133.688889-54.044444-39.822222-115.2-39.822222-177.777777-39.822223H521.955556v534.755556h140.8V618.666667l112.355555 162.133333h295.822222V618.666667l112.355556 162.133333H1479.111111V246.044444h-137.955555z m328.533333 207.644445c-76.8 0-139.377778-45.511111-139.377778-99.555556 0-55.466667 62.577778-100.977778 139.377778-100.977777s139.377778 45.511111 139.377778 100.977777c0 55.466667-64 99.555556-139.377778 99.555556m2.844444-207.644445c-81.066667 0-149.333333 48.355556-149.333333 106.666667s66.844444 106.666667 149.333333 106.666667c81.066667 0 147.911111-48.355556 147.911111-106.666667s-66.844444-106.666667-147.911111-106.666667m75.377778 35.555556c9.955556 4.266667 21.333333 12.8 28.444445 21.333333-4.266667 0-4.266667 0-4.266667 7.111111v86.755556c0 4.266667 4.266667 4.266667 7.111111 5.688889-5.688889 8.533333-15.644444 15.644444-28.444444 22.755555 4.266667-12.8 4.266667-19.911111 4.266666-35.555555v-72.533333c-1.422222-25.6-5.688889-35.555556-7.111111-35.555556m-105.244444 68.266667h-7.111111v-64c0-7.111111 4.266667-15.644444 9.955555-15.644445 8.533333 0 9.955556 8.533333 9.955556 15.644445v51.2c-1.422222 5.688889-7.111111 12.8-12.8 12.8m29.866666 52.622222v-24.177778c0-18.488889-11.377778-21.333333-19.911111-27.022222 12.8-8.533333 22.755556-21.333333 22.755556-32.711111s1.422222-21.333333 0-32.711111c-1.422222-9.955556-4.266667-14.222222-11.377778-19.911111-4.266667-2.844444-11.377778-4.266667-19.911111-2.844445-11.377778 2.844444-21.333333 4.266667-34.133333 8.533333 4.266667 4.266667 4.266667 12.8 4.266666 18.488889v126.577778c0 8.533333-1.422222 14.222222-4.266666 18.488889 11.377778 4.266667 17.066667 5.688889 28.444444 7.111111-4.266667-12.8-7.111111-19.911111-7.111111-32.711111V355.555556h7.111111c2.844444 0 7.111111 1.422222 8.533333 2.844444 4.266667 2.844444 2.844444 14.222222 2.844445 22.755556v28.444444c1.422222 15.644444 1.422222 21.333333 11.377778 34.133333 4.266667-1.422222 15.644444-7.111111 15.644444-31.288889-4.266667-1.422222-4.266667-2.844444-4.266667-9.955555m52.622223-66.844445c-1.422222 5.688889-5.688889 12.8-12.8 12.8h-7.111112v-59.733333c0-7.111111 2.844444-17.066667 9.955556-17.066667s9.955556 9.955556 9.955556 17.066667v46.933333z m17.066666 58.311112v-19.911112c0-12.8-9.955556-19.911111-15.644444-22.755555 4.266667-4.266667 12.8-5.688889 14.222222-12.8 5.688889-15.644444 7.111111-41.244444-1.422222-55.466667-8.533333-12.8-36.977778-19.911111-58.311111-19.911111 2.844444 2.844444 5.688889 5.688889 5.688889 15.644445V412.444444c0 8.533333-1.422222 21.333333-9.955556 31.288889 12.8 0 28.444444-4.266667 36.977778-5.688889-8.533333-8.533333-9.955556-9.955556-9.955556-22.755555v-58.311111h8.533334c5.688889 0 9.955556 2.844444 9.955555 9.955555v8.533334l1.422222 32.711111c1.422222 8.533333 9.955556 17.066667 15.644445 21.333333 4.266667-8.533333 8.533333-17.066667 8.533333-25.6-2.844444-1.422222-5.688889-2.844444-5.688889-9.955555m-160.711111-42.666667h-21.333333c1.422222-11.377778 2.844444-14.222222 5.688889-22.755556s7.111111-12.8 14.222222-25.6l1.422222 48.355556z m0 51.2c0 4.266667-4.266667 12.8-8.533333 15.644444 9.955556 5.688889 21.333333 12.8 29.866666 15.644445-1.422222-4.266667-2.844444-4.266667-2.844444-38.4v-86.755556c1.422222-28.444444 1.422222-27.022222 2.844444-31.288889-9.955556 4.266667-17.066667 8.533333-27.022222 12.8 4.266667 1.422222 4.266667 2.844444 2.844445 4.266667-12.8 19.911111-24.177778 36.977778-31.288889 62.577778-4.266667 14.222222-2.844444 35.555556 9.955555 48.355555 4.266667 4.266667 9.955556 4.266667 14.222223-2.844444 4.266667-5.688889 4.266667-21.333333 2.844444-21.333333-1.422222 1.422222-4.266667 2.844444-5.688889 2.844444-2.844444-1.422222-4.266667-1.422222-5.688889-4.266667-2.844444-4.266667-2.844444-11.377778-2.844444-21.333333h21.333333v44.088889z" fill="#0059A7" p-id="1679"></path></svg>