<?xml version="1.0" standalone="no"?><!DOCTYPE svg PUBLIC "-//W3C//DTD SVG 1.1//EN" "http://www.w3.org/Graphics/SVG/1.1/DTD/svg11.dtd"><svg t="1661424143730" class="icon" viewBox="0 0 1820 1024" version="1.1" xmlns="http://www.w3.org/2000/svg" p-id="1975" xmlns:xlink="http://www.w3.org/1999/xlink" width="227.5" height="128"><defs><style type="text/css">@font-face { font-family: feedback-iconfont; src: url("//at.alicdn.com/t/font_1031158_u69w8yhxdu.woff2?t=1630033759944") format("woff2"), url("//at.alicdn.com/t/font_1031158_u69w8yhxdu.woff?t=1630033759944") format("woff"), url("//at.alicdn.com/t/font_1031158_u69w8yhxdu.ttf?t=1630033759944") format("truetype"); }
</style></defs><path d="M450.844444 595.911111c9.955556 14.222222 4.266667 24.177778-7.111111 34.133333-32.711111 29.866667-72.533333 46.933333-115.2 55.466667-55.466667 9.955556-108.088889 5.688889-160.711111-15.644444-51.2-21.333333-88.177778-55.466667-106.666666-108.088889-24.177778-69.688889 2.844444-145.066667 65.422222-187.733334 31.288889-21.333333 66.844444-34.133333 103.822222-38.4 54.044444-7.111111 106.666667-2.844444 157.866667 18.488889 34.133333 14.222222 62.577778 36.977778 83.911111 68.266667 1.422222 1.422222 2.844444 4.266667 4.266666 5.688889l-140.8 81.066667s-1.422222 0-1.422222-1.422223l73.955556-119.466666c-38.4-29.866667-116.622222-36.977778-173.511111 14.222222-59.733333 56.888889-62.577778 149.333333-5.688889 209.066667 58.311111 59.733333 164.977778 62.577778 221.866666-15.644445z m1160.533334 85.333333h-105.244445V445.155556h-68.266666v-1.422223c8.533333-4.266667 17.066667-8.533333 24.177777-11.377777 22.755556-9.955556 45.511111-19.911111 66.844445-31.288889 31.288889-17.066667 71.111111-4.266667 81.066667 35.555555 9.955556-4.266667 19.911111-8.533333 29.866666-14.222222 17.066667-8.533333 34.133333-15.644444 52.622222-24.177778 36.977778-17.066667 75.377778 8.533333 75.377778 48.355556v233.244444h-105.244444V475.022222c0-14.222222-7.111111-25.6-18.488889-28.444444-17.066667-4.266667-34.133333 7.111111-34.133333 25.6v201.955555c1.422222 1.422222 1.422222 4.266667 1.422222 7.111111z m-502.044445 0h-103.822222v-9.955555-196.266667c0-15.644444-7.111111-25.6-19.911111-28.444444-14.222222-4.266667-31.288889 5.688889-32.711111 21.333333v213.333333h-105.244445V455.111111c0-9.955556 0-9.955556-9.955555-9.955555-19.911111 0-38.4 0-58.311111-1.422223 1.422222-1.422222 4.266667-1.422222 5.688889-2.844444 29.866667-14.222222 59.733333-28.444444 89.6-41.244445 34.133333-15.644444 65.422222-1.422222 76.8 34.133334 0 1.422222 0 1.422222 1.422222 2.844444 14.222222-5.688889 27.022222-12.8 41.244444-18.488889 14.222222-7.111111 28.444444-14.222222 42.666667-19.911111 35.555556-15.644444 72.533333 9.955556 73.955556 48.355556v228.977778c-1.422222 0-1.422222 2.844444-1.422223 5.688888zM512 443.733333l83.911111-31.288889c14.222222-5.688889 28.444444-9.955556 42.666667-15.644444 46.933333-17.066667 98.133333 9.955556 110.933333 58.311111 19.911111 72.533333 39.822222 146.488889 58.311111 219.022222 0 1.422222 0 2.844444 1.422222 5.688889H711.111111c-5.688889 0-7.111111-1.422222-8.533333-7.111111-2.844444-14.222222-7.111111-27.022222-11.377778-41.244444l-17.066667 17.066666c-44.088889 44.088889-120.888889 49.777778-170.666666 12.8-22.755556-17.066667-36.977778-38.4-36.977778-68.266666 0-35.555556 17.066667-61.155556 46.933333-78.222223 48.355556-27.022222 95.288889-24.177778 140.8 7.111112 1.422222 1.422222 2.844444 2.844444 5.688889 4.266666v-5.688889c-5.688889-24.177778-12.8-48.355556-18.488889-71.111111-1.422222-5.688889-4.266667-7.111111-8.533333-7.111111h-115.2l-5.688889 1.422222c0 1.422222 0 0 0 0z m166.4 150.755556c0-28.444444-22.755556-52.622222-52.622222-52.622222-28.444444 0-52.622222 24.177778-52.622222 52.622222s24.177778 52.622222 52.622222 52.622222c29.866667 0 52.622222-24.177778 52.622222-52.622222z m475.022222-52.622222c1.422222-85.333333 69.688889-147.911111 146.488889-149.333334 83.911111-1.422222 150.755556 65.422222 150.755556 147.911111 0 81.066667-65.422222 147.911111-145.066667 149.333334-79.644444 1.422222-150.755556-59.733333-152.177778-147.911111z m206.222222 92.444444c0-1.422222-1.422222-4.266667-1.422222-8.533333-17.066667-62.577778-32.711111-123.733333-49.777778-186.311111-5.688889-19.911111-22.755556-29.866667-41.244444-25.6-15.644444 4.266667-28.444444 22.755556-22.755556 42.666666 9.955556 34.133333 18.488889 66.844444 27.022223 100.977778 7.111111 28.444444 15.644444 56.888889 22.755555 85.333333 4.266667 17.066667 19.911111 27.022222 35.555556 24.177778 18.488889 0 31.288889-14.222222 29.866666-32.711111z" fill="#DF0012" p-id="1976"></path></svg>