<?xml version="1.0" standalone="no"?><!DOCTYPE svg PUBLIC "-//W3C//DTD SVG 1.1//EN" "http://www.w3.org/Graphics/SVG/1.1/DTD/svg11.dtd"><svg t="1661426231771" class="icon" viewBox="0 0 1065 1024" version="1.1" xmlns="http://www.w3.org/2000/svg" p-id="1790" xmlns:xlink="http://www.w3.org/1999/xlink"><defs><style type="text/css">@font-face { font-family: feedback-iconfont; src: url("//at.alicdn.com/t/font_1031158_u69w8yhxdu.woff2?t=1630033759944") format("woff2"), url("//at.alicdn.com/t/font_1031158_u69w8yhxdu.woff?t=1630033759944") format("woff"), url("//at.alicdn.com/t/font_1031158_u69w8yhxdu.ttf?t=1630033759944") format("truetype"); }
</style></defs><path d="M532.772873 0C249.995558 0 20.772873 229.222686 20.772873 512S249.995558 1024 532.772873 1024s512-229.222686 512-512S815.550187 0 532.772873 0z m306.906018 819.516169c-86.530524 84.22859-189.618331 126.939169-306.268133 126.939169-122.002492 0-227.752776-42.821516-314.366503-127.244244-86.585992-84.394995-130.516873-187.649206-130.516873-306.878284 0-119.64509 43.930881-223.121174 130.516873-307.488435 86.64146-84.450463 192.419479-127.271979 314.366503-127.271979 137.977358 0 251.909214 51.197227 338.578408 152.12177l8.43118 9.817886-10.03976 8.153838c-8.90266 7.266345-32.643085 28.372028-32.643085 28.372028l-9.37414 8.375711-8.403446-9.37414C743.857429 189.673799 647.425817 146.436271 533.410758 146.436271c-103.476085 0-192.918693 36.082119-265.94269 107.247928-73.023997 71.221277-110.049076 158.251016-110.049077 258.648611 0 99.981583 36.997346 186.789448 110.049077 257.955257 32.698554 31.894264 68.69747 56.688587 107.802611 74.410703V289.267104H702.783165v60.959644h-262.614593v191.254645h262.614593v60.959645h-262.614593v264.500514c29.647798 7.09994 60.765506 10.677645 93.26992 10.677645 90.829316 0 172.755972-30.951303 243.533503-91.938681 70.694329-61.042847 113.682249-137.810953 127.687991-228.196523l1.081631-7.016738h-136.063701v-72.24744h173.171984c12.286225 0 21.272087 2.912085 26.735713 8.653052 5.519094 5.82417 7.931965 14.699095 7.349548 27.17946-4.409729 118.397053-50.559341 221.235253-137.25627 305.463842z" fill="#F2CA3A" p-id="1791"></path></svg>