<?xml version="1.0" standalone="no"?><!DOCTYPE svg PUBLIC "-//W3C//DTD SVG 1.1//EN" "http://www.w3.org/Graphics/SVG/1.1/DTD/svg11.dtd"><svg t="1661424265904" class="icon" viewBox="0 0 1820 1024" version="1.1" xmlns="http://www.w3.org/2000/svg" p-id="1834" xmlns:xlink="http://www.w3.org/1999/xlink"><defs><style type="text/css">@font-face { font-family: feedback-iconfont; src: url("//at.alicdn.com/t/font_1031158_u69w8yhxdu.woff2?t=1630033759944") format("woff2"), url("//at.alicdn.com/t/font_1031158_u69w8yhxdu.woff?t=1630033759944") format("woff"), url("//at.alicdn.com/t/font_1031158_u69w8yhxdu.ttf?t=1630033759944") format("truetype"); }
</style></defs><path d="M1348 372.8v217.6c0 14.4 7.2 21.6 21.6 21.6h72.8v24c0 3.2-1.6 4-4 4h-116.8c-35.2 0-41.6-20-41.6-38.4V388c0-9.6 4-16 16-16h52m-133.6 0.8v254.4c0 11.2-4 14.4-14.4 14.4h-55.2V387.2c0-8.8 3.2-14.4 16-14.4h53.6M72 409.6c0-21.6 0-36.8 34.4-36.8h148v25.6c0 1.6-1.6 4-4 4H160.8c-11.2 0-16.8 5.6-16.8 18.4v68h104v27.2c0 3.2-1.6 4-4 4H144.8v106.4c0 9.6-5.6 14.4-16.8 14.4H72V409.6m290.4-36.8v206.4c0 18.4 3.2 29.6 16 36.8 16 9.6 44 9.6 60.8 0 11.2-7.2 16-16.8 16-36.8V385.6c0-8.8 3.2-12.8 16-12.8h54.4v199.2c0 47.2-29.6 65.6-55.2 72.8-34.4 9.6-86.4 9.6-118.4 0-38.4-11.2-56.8-34.4-56.8-72.8V385.6c0-8.8 3.2-14.4 12.8-14.4l54.4 1.6m1305.6 0c-12.8 0-21.6 7.2-24 18.4L1600 577.6h-1.6l-45.6-204.8h-60.8c-12.8 0-16 5.6-16 16v254.4h27.2c4 0 5.6-1.6 5.6-7.2V422.4h4l54.4 219.2h36.8c14.4 0 18.4-5.6 22.4-18.4l49.6-200.8h4v219.2h49.6c12.8 0 16.8-4 16.8-16V372.8h-78.4m-816 146.4h-69.6v122.4h55.2c9.6 0 14.4-3.2 14.4-14.4V519.2" p-id="1835"></path><path d="M847.2 466.4c3.2-1.6 4-4 4-7.2V372.8h-54.4c-12.8 0-16 5.6-16 14.4v131.2l66.4-52" fill="#FB0020" p-id="1836"></path><path d="M611.2 621.6c29.6-4 40-21.6 40-48V387.2c0-11.2 5.6-14.4 12.8-14.4h55.2v175.2c0 42.4-9.6 64-34.4 84-12.8 9.6-35.2 21.6-86.4 21.6-28.8 0-41.6-1.6-44-1.6-3.2-1.6-4-1.6-4-4v-24c13.6-0.8 40.8 0 60.8-2.4M956.8 372.8c-34.4 0-34.4 16.8-34.4 36.8v69.6c0 1.6-1.6 1.6-1.6 3.2l-47.2 36.8h48v122.4h55.2c11.2 0 16.8-4 16.8-14.4V517.6H1096c1.6 0 4-1.6 4-4v-27.2h-104v-68c0-12.8 5.6-18.4 18.4-18.4H1104c3.2 0 4-1.6 4-4v-24h-152" p-id="1837"></path></svg>