<?xml version="1.0" standalone="no"?><!DOCTYPE svg PUBLIC "-//W3C//DTD SVG 1.1//EN" "http://www.w3.org/Graphics/SVG/1.1/DTD/svg11.dtd"><svg t="1657259909725" class="icon" viewBox="0 0 1024 1024" version="1.1" xmlns="http://www.w3.org/2000/svg" p-id="2293" xmlns:xlink="http://www.w3.org/1999/xlink"><defs><style type="text/css">@font-face { font-family: feedback-iconfont; src: url("//at.alicdn.com/t/font_1031158_u69w8yhxdu.woff2?t=1630033759944") format("woff2"), url("//at.alicdn.com/t/font_1031158_u69w8yhxdu.woff?t=1630033759944") format("woff"), url("//at.alicdn.com/t/font_1031158_u69w8yhxdu.ttf?t=1630033759944") format("truetype"); }
</style></defs><path d="M512 1023.978667c282.730667 0 512-229.162667 512-511.872C1024 229.290667 794.730667 0 512 0 229.205333 0 0 229.290667 0 512.106667c0 282.709333 229.205333 511.872 512 511.872z" fill="#E20613" p-id="2294"></path><path d="M919.04 541.12s-13.333333 9.621333-22.784 9.621333c-7.189333 0-11.114667-6.016-11.114667-12.565333 0-14.826667 23.189333-87.786667 23.189334-87.786667l-56.725334 0.789334-2.944 9.877333s-8.277333-16.725333-38.037333-16.725333c-57.706667 0-89.365333 49.749333-90.730667 79.04l-0.362666 7.253333c-1.322667 1.557333-21.738667 24.768-46.784 24.768-20.010667 0-23.338667-16.789333-23.338667-27.52 0-11.648 9.664-57.642667 36.949333-57.642667 14.890667 0 24 12.906667 24 12.906667l8.042667-26.325333s-12.693333-9.856-38.613333-9.941334c-55.786667-0.064-93.888 41.834667-95.253334 79.573334-0.298667 5.653333-0.469333 7.488-0.426666 7.829333-1.834667 2.261333-15.573333 18.090667-33.429334 18.090667-12.224 0-12.224-9.536-12.224-13.781334 0-5.717333 24.170667-87.850667 24.170667-87.850666l-63.104 0.917333-22.506667 79.722667s-34.581333 25.045333-82.922666 28.501333c-24.896 1.664-33.493333-13.418667-33.493334-22.293333v-3.690667s10.154667 0.64 17.770667 0.64c5.930667 0 79.573333-5.098667 79.573333-50.176 0-25.749333-25.749333-35.562667-58.346666-35.562667-60.181333 0-102.378667 37.333333-102.378667 81.642667 0 40.426667 34.581333 57.770667 79.104 57.770667 50.517333 0 99.84-30.890667 99.84-30.890667s2.752 30.890667 42.602667 30.890667c41.130667 0 73.386667-30.890667 73.386666-30.890667s17.92 29.717333 58.858667 29.717333c41.834667 0 73.941333-33.792 73.941333-33.792s11.2 31.893333 52.629334 31.893334c32.405333 0 49.728-21.248 49.728-21.248s9.28 21.248 37.482666 21.248c34.432 0 60.266667-24.298667 60.266667-24.298667l-6.016-19.712zM402.218667 467.2c8.469333 0.469333 14.186667 6.549333 13.909333 12.757333-1.408 40.064-50.794667 33.877333-50.794667 33.877334s8.042667-48.405333 36.885334-46.634667z m396.650666 88.192c-15.530667 0-15.530667-17.066667-15.530666-22.016 0-13.056 10.24-64.896 38.421333-64.896 11.84 0 18.197333 10.026667 18.197333 17.493333 0 1.557333-7.125333 69.418667-41.088 69.418667z" fill="#FFFFFF" p-id="2295"></path><path d="M930.410667 595.114667s-132.501333 46.122667-385.365334 43.029333c-174.421333-2.112-307.413333-53.610667-307.413333-53.610667s4.309333-8.426667 7.125333-14.058666c17.493333-35.605333 38.101333-107.925333 38.101334-107.925334s119.872-33.450667 119.872-128.618666c0-30.122667-28.010667-49.536-55.658667-50.730667-96.597333-3.733333-123.413333 133.909333-129.322667 157.333333-0.341333 1.706667-0.490667 2.197333-0.490666 2.197334-29.845333-4.096-46.634667-10.176-46.634667-10.176l-6.848 18.56c20.096 9.514667 49.386667 12.629333 49.386667 12.629333-5.781333 36.906667-34.432 106.730667-34.432 106.730667s-26.453333-8.725333-59.264-8.725334c-42.624 0-57.216 20.245333-58.261334 32.938667-2.837333 32.896 38.528 48.341333 67.370667 48.341333 56.298667 0 85.589333-30.4 85.589333-30.4s158.4 59.84 323.626667 59.84c216.256 0 398.656-57.6 398.656-57.6l-6.037333-19.754666z m-578.773334-284.608c18.56 0 24.704 15.04 23.146667 28.565333-9.045333 79.530667-88 97.728-88 97.728s19.626667-126.293333 64.853333-126.293333zM116.416 617.386667c-15.957333 0.490667-26.325333-10.069333-26.325333-16 0-13.12 16.085333-15.146667 26.325333-14.485334 24.704 1.344 45.930667 9.834667 45.930667 9.834667s-25.045333 20.053333-45.930667 20.650667z" fill="#FFFFFF" p-id="2296"></path><path d="M543.552 375.978667c-20.117333 0-34.922667 8.192-34.922667 27.029333 0 19.050667 17.130667 24.277333 34.922667 24.277333 17.834667 0 34.154667-8.405333 34.154667-27.797333 0-19.498667-19.626667-23.509333-34.154667-23.509333z" fill="#FFFFFF" p-id="2297"></path></svg>