<?xml version="1.0" standalone="no"?><!DOCTYPE svg PUBLIC "-//W3C//DTD SVG 1.1//EN" "http://www.w3.org/Graphics/SVG/1.1/DTD/svg11.dtd"><svg t="1661424363838" class="icon" viewBox="0 0 1820 1024" version="1.1" xmlns="http://www.w3.org/2000/svg" p-id="1990" xmlns:xlink="http://www.w3.org/1999/xlink"><defs><style type="text/css">@font-face { font-family: feedback-iconfont; src: url("//at.alicdn.com/t/font_1031158_u69w8yhxdu.woff2?t=1630033759944") format("woff2"), url("//at.alicdn.com/t/font_1031158_u69w8yhxdu.woff?t=1630033759944") format("woff"), url("//at.alicdn.com/t/font_1031158_u69w8yhxdu.ttf?t=1630033759944") format("truetype"); }
</style></defs><path d="M91.022222 719.644444V231.822222h91.022222v409.6h126.577778v79.644445l-217.6-1.422223z m574.577778-487.822222v315.733334c0 58.311111-12.8 102.4-39.822222 133.688888s-64 46.933333-113.777778 46.933334c-48.355556 0-86.755556-15.644444-110.933333-45.511111-25.6-31.288889-38.4-75.377778-38.4-135.111111V231.822222h91.022222v321.422222c0 61.155556 21.333333 92.444444 61.155555 92.444445 18.488889 0 34.133333-7.111111 44.088889-22.755556s15.644444-38.4 15.644445-66.844444V231.822222h91.022222zM924.444444 719.644444l-92.444444-416.711111h-2.844444c4.266667 32.711111 7.111111 61.155556 7.111111 88.177778v328.533333h-83.911111V231.822222h140.8l83.911111 384h2.844444l82.488889-384h140.8v489.244445h-86.755556V389.688889c0-27.022222 1.422222-55.466667 4.266667-83.911111h-2.844444l-92.444445 415.288889-100.977778-1.422223z m379.733334 0V231.822222h86.755555v489.244445l-86.755555-1.422223z m469.333333 0H1678.222222l-69.688889-174.933333-65.422222 174.933333h-95.288889l110.933334-254.577777-103.822223-234.666667h91.022223l64 160.711111 56.888888-160.711111h95.288889L1661.155556 469.333333l112.355555 250.311111z" p-id="1991"></path></svg>