<?xml version="1.0" standalone="no"?><!DOCTYPE svg PUBLIC "-//W3C//DTD SVG 1.1//EN" "http://www.w3.org/Graphics/SVG/1.1/DTD/svg11.dtd"><svg t="1661424399666" class="icon" viewBox="0 0 1820 1024" version="1.1" xmlns="http://www.w3.org/2000/svg" p-id="2144" xmlns:xlink="http://www.w3.org/1999/xlink"><defs><style type="text/css">@font-face { font-family: feedback-iconfont; src: url("//at.alicdn.com/t/font_1031158_u69w8yhxdu.woff2?t=1630033759944") format("woff2"), url("//at.alicdn.com/t/font_1031158_u69w8yhxdu.woff?t=1630033759944") format("woff"), url("//at.alicdn.com/t/font_1031158_u69w8yhxdu.ttf?t=1630033759944") format("truetype"); }
</style></defs><path d="M194.844444 530.488889c-11.377778 25.6-12.8 52.622222-19.911111 78.222222-9.955556 38.4-18.488889 78.222222-27.022222 118.044445-2.844444 15.644444-11.377778 22.755556-27.022222 21.333333-29.866667-1.422222-61.155556-1.422222-91.022222 0-15.644444 0-19.911111-4.266667-15.644445-19.911111C35.555556 632.888889 56.888889 537.6 78.222222 440.888889c9.955556-46.933333 21.333333-93.866667 31.288889-139.377778 4.266667-17.066667 11.377778-25.6 29.866667-24.177778 28.444444 1.422222 58.311111 1.422222 86.755555 0 15.644444 0 22.755556 7.111111 28.444445 21.333334 24.177778 66.844444 49.777778 133.688889 78.222222 200.533333 7.111111-27.022222 12.8-54.044444 18.488889-79.644444 9.955556-41.244444 18.488889-82.488889 27.022222-123.733334 2.844444-11.377778 8.533333-17.066667 19.911111-17.066666h96.711111c17.066667 0 17.066667 8.533333 14.222223 22.755555-25.6 108.088889-49.777778 216.177778-73.955556 325.688889-7.111111 34.133333-15.644444 66.844444-22.755556 100.977778-2.844444 15.644444-11.377778 22.755556-27.022222 21.333333-28.444444-1.422222-58.311111-1.422222-86.755555 0-14.222222 0-19.911111-4.266667-25.6-17.066667-22.755556-59.733333-45.511111-118.044444-68.266667-177.777777 0-8.533333-1.422222-17.066667-9.955556-24.177778z m645.688889-21.333333c22.755556-27.022222 46.933333-52.622222 66.844445-79.644445 15.644444-21.333333 34.133333-32.711111 62.577778-29.866667 28.444444 2.844444 58.311111 0 86.755555 0 5.688889 0 14.222222-1.422222 17.066667 5.688889 2.844444 7.111111-2.844444 11.377778-7.111111 17.066667-31.288889 36.977778-61.155556 75.377778-93.866667 110.933333-17.066667 18.488889-19.911111 35.555556-12.8 59.733334 14.222222 42.666667 25.6 86.755556 38.4 129.422222 5.688889 22.755556 4.266667 25.6-18.488889 25.6-28.444444 0-58.311111-1.422222-86.755555 0-17.066667 0-24.177778-5.688889-28.444445-21.333333-12.8-45.511111-27.022222-91.022222-42.666667-142.222223-9.955556 24.177778-11.377778 44.088889-17.066666 64-7.111111 27.022222-12.8 54.044444-18.488889 79.644445-2.844444 12.8-9.955556 18.488889-22.755556 18.488889h-92.444444c-15.644444 0-18.488889-5.688889-14.222222-19.911111 25.6-113.777778 51.2-226.133333 76.8-339.911112 7.111111-29.866667 14.222222-61.155556 19.911111-91.022222 2.844444-14.222222 9.955556-19.911111 24.177778-19.911111 29.866667 0 61.155556 1.422222 91.022222 0 17.066667 0 21.333333 5.688889 17.066666 21.333333l-42.666666 192c-2.844444 5.688889-5.688889 11.377778-2.844445 19.911112z" p-id="2145"></path><path d="M1184.711111 760.888889c-11.377778-1.422222-25.6-2.844444-38.4-4.266667-109.511111-11.377778-135.111111-98.133333-125.155555-173.511111 21.333333-167.822222 162.133333-219.022222 291.555555-187.733333 71.111111 17.066667 110.933333 79.644444 103.822222 153.6-4.266667 46.933333-18.488889 89.6-44.088889 128-46.933333 64-112.355556 81.066667-187.733333 83.911111z m11.377778-103.822222c18.488889 0 32.711111-8.533333 39.822222-25.6 14.222222-36.977778 19.911111-73.955556 27.022222-112.355556 2.844444-18.488889-7.111111-27.022222-25.6-28.444444-19.911111-1.422222-35.555556 7.111111-42.666666 24.177777-14.222222 35.555556-24.177778 73.955556-27.022223 112.355556-1.422222 21.333333 8.533333 29.866667 28.444445 29.866667z m419.555555-220.444445c28.444444-24.177778 58.311111-39.822222 93.866667-44.088889 24.177778-2.844444 46.933333 0 66.844445 14.222223 28.444444 19.911111 36.977778 46.933333 29.866666 79.644444-17.066667 81.066667-35.555556 162.133333-52.622222 243.2-2.844444 12.8-9.955556 17.066667-21.333333 17.066667h-91.022223c-18.488889 0-21.333333-7.111111-17.066666-22.755556 12.8-54.044444 24.177778-106.666667 35.555555-160.711111 7.111111-31.288889 1.422222-45.511111-17.066666-51.2-21.333333-5.688889-48.355556 11.377778-54.044445 38.4-8.533333 35.555556-17.066667 72.533333-24.177778 109.511111-5.688889 24.177778-11.377778 48.355556-15.644444 72.533333-2.844444 11.377778-7.111111 17.066667-19.911111 17.066667-32.711111-1.422222-65.422222-1.422222-96.711111 0-15.644444 0-18.488889-5.688889-14.222222-19.911111 22.755556-100.977778 44.088889-200.533333 65.422222-301.511111 4.266667-17.066667 11.377778-25.6 29.866666-24.177778 27.022222 1.422222 55.466667 1.422222 82.488889 0 17.066667 0 28.444444 2.844444 21.333334 24.177778-4.266667 1.422222-2.844444 4.266667-1.422223 8.533333zM530.488889 748.088889H483.555556c-12.8 0-18.488889-4.266667-14.222223-18.488889 22.755556-103.822222 46.933333-207.644444 69.688889-311.466667 2.844444-12.8 8.533333-18.488889 21.333334-18.488889 29.866667 0 61.155556 0 91.022222-1.422222 15.644444 0 21.333333 5.688889 18.488889 21.333334-12.8 55.466667-24.177778 109.511111-35.555556 164.977777-9.955556 46.933333-21.333333 93.866667-32.711111 139.377778-2.844444 14.222222-9.955556 21.333333-25.6 21.333333-15.644444 1.422222-29.866667 2.844444-45.511111 2.844445z m88.177778-365.511111c-7.111111-1.422222-14.222222-1.422222-22.755556-4.266667-19.911111-5.688889-39.822222-12.8-45.511111-35.555555-5.688889-22.755556 2.844444-42.666667 19.911111-58.311112 25.6-24.177778 83.911111-28.444444 113.777778-8.533333 28.444444 19.911111 27.022222 62.577778-1.422222 86.755556-18.488889 14.222222-41.244444 18.488889-64 19.911111z" p-id="2146"></path></svg>