<?xml version="1.0" standalone="no"?><!DOCTYPE svg PUBLIC "-//W3C//DTD SVG 1.1//EN" "http://www.w3.org/Graphics/SVG/1.1/DTD/svg11.dtd"><svg t="1661424425927" class="icon" viewBox="0 0 1820 1024" version="1.1" xmlns="http://www.w3.org/2000/svg" p-id="2297" xmlns:xlink="http://www.w3.org/1999/xlink"><defs><style type="text/css">@font-face { font-family: feedback-iconfont; src: url("//at.alicdn.com/t/font_1031158_u69w8yhxdu.woff2?t=1630033759944") format("woff2"), url("//at.alicdn.com/t/font_1031158_u69w8yhxdu.woff?t=1630033759944") format("woff"), url("//at.alicdn.com/t/font_1031158_u69w8yhxdu.ttf?t=1630033759944") format("truetype"); }
</style></defs><path d="M371.2 416.711111h79.644444v147.911111h99.555556v42.666667H371.2zM1373.866667 614.4c-61.155556 0-113.777778-18.488889-113.777778-69.688889v-128h75.377778v122.311111c0 24.177778 17.066667 35.555556 36.977777 35.555556 18.488889 0 36.977778-11.377778 36.977778-35.555556v-122.311111h76.8v128c1.422222 52.622222-51.2 69.688889-112.355555 69.688889zM1648.355556 467.911111h81.066666c-4.266667-44.088889-65.422222-56.888889-113.777778-56.888889-46.933333 0-109.511111 15.644444-109.511111 62.577778 0 35.555556 34.133333 45.511111 58.311111 51.2 17.066667 2.844444 45.511111 8.533333 58.311112 11.377778 19.911111 4.266667 29.866667 7.111111 29.866666 19.911111 0 12.8-11.377778 18.488889-35.555555 18.488889-22.755556 0-35.555556-7.111111-39.822223-22.755556H1493.333333c4.266667 51.2 71.111111 62.577778 123.733334 62.577778s115.2-12.8 115.2-62.577778c0-28.444444-18.488889-46.933333-62.577778-55.466666-22.755556-4.266667-55.466667-11.377778-66.844445-12.8-17.066667-2.844444-22.755556-8.533333-22.755555-17.066667 0-7.111111 7.111111-17.066667 29.866667-17.066667s34.133333 7.111111 38.4 18.488889zM1174.755556 537.6c56.888889 0 71.111111-36.977778 71.111111-59.733333 0-21.333333-12.8-61.155556-71.111111-61.155556H1021.155556l1.422222 190.577778h73.955555v-69.688889h78.222223z" fill="#134C99" p-id="2298"></path><path d="M1096.533333 494.933333v-36.977777h49.777778c12.8 0 24.177778 5.688889 24.177778 17.066666 0 11.377778-5.688889 18.488889-24.177778 18.488889l-49.777778 1.422222z" fill="#FFFFFF" p-id="2299"></path><path d="M645.688889 422.4l2.844444-4.266667h78.222223l-82.488889 126.577778v64h-73.955556v-64l-82.488889-126.577778h78.222222l2.844445 4.266667 35.555555 62.577778c2.844444 4.266667 2.844444 4.266667 5.688889 0l35.555556-62.577778zM884.622222 607.288889l1.422222-4.266667 39.822223-93.866666c1.422222-2.844444 4.266667-1.422222 4.266666 1.422222v96.711111h64V416.711111h-78.222222l-1.422222 4.266667-48.355556 108.088889c-2.844444 4.266667-4.266667 4.266667-5.688889 0L810.666667 420.977778v-4.266667h-78.222223v190.577778H796.444444v-96.711111c0-2.844444 2.844444-2.844444 2.844445-1.422222l39.822222 93.866666 1.422222 4.266667h44.088889zM354.133333 512c0 64-55.466667 102.4-133.688889 102.4-76.8 0-132.266667-38.4-132.266666-102.4s55.466667-102.4 132.266666-102.4c78.222222 1.422222 133.688889 38.4 133.688889 102.4z" fill="#134C99" p-id="2300"></path><path d="M169.244444 512a62.577778 52.622222 90 1 0 105.244445 0 62.577778 52.622222 90 1 0-105.244445 0Z" fill="#FFFFFF" p-id="2301"></path></svg>