<?xml version="1.0" standalone="no"?><!DOCTYPE svg PUBLIC "-//W3C//DTD SVG 1.1//EN" "http://www.w3.org/Graphics/SVG/1.1/DTD/svg11.dtd"><svg t="1661424477939" class="icon" viewBox="0 0 1820 1024" version="1.1" xmlns="http://www.w3.org/2000/svg" p-id="2450" xmlns:xlink="http://www.w3.org/1999/xlink"><defs><style type="text/css">@font-face { font-family: feedback-iconfont; src: url("//at.alicdn.com/t/font_1031158_u69w8yhxdu.woff2?t=1630033759944") format("woff2"), url("//at.alicdn.com/t/font_1031158_u69w8yhxdu.woff?t=1630033759944") format("woff"), url("//at.alicdn.com/t/font_1031158_u69w8yhxdu.ttf?t=1630033759944") format("truetype"); }
</style></defs><path d="M119.466667 658.488889V364.088889h184.888889c24.177778 0 65.422222 28.444444 65.422222 71.111111v85.333333c0 28.444444-25.6 66.844444-52.622222 66.844445h-108.088889v72.533333l-89.6-1.422222z m88.177777-128h45.511112c11.377778 0 25.6-17.066667 25.6-25.6v-71.111111c0-4.266667-8.533333-19.911111-17.066667-19.911111h-55.466667c1.422222 0 1.422222 116.622222 1.422222 116.622222z m187.733334 128V364.088889h217.6v52.622222h-128v62.577778h106.666666v55.466667h-106.666666v72.533333h128v52.622222c1.422222-1.422222-217.6-1.422222-217.6-1.422222z m247.466666 0V364.088889h85.333334l75.377778 159.288889V364.088889H881.777778v295.822222h-88.177778l-65.422222-146.488889v146.488889h-85.333334v-1.422222z m348.444445 0V415.288889h-88.177778v-52.622222h274.488889v52.622222h-93.866667v243.2h-92.444444z m135.111111 0l99.555556-295.822222H1308.444444l98.133334 295.822222h-82.488889l-18.488889-51.2h-81.066667l-14.222222 51.2h-83.911111z m113.777778-100.977778h51.2l-22.755556-96.711111-28.444444 96.711111z m315.733333-123.733333l41.244445-71.111111h96.711111l-88.177778 137.955555 93.866667 157.866667h-99.555556l-42.666667-85.333333-44.088889 85.333333h-99.555555l93.866667-157.866667-89.6-137.955555h98.133333l39.822222 71.111111z" fill="#E8380D" p-id="2451"></path></svg>