<?xml version="1.0" standalone="no"?><!DOCTYPE svg PUBLIC "-//W3C//DTD SVG 1.1//EN" "http://www.w3.org/Graphics/SVG/1.1/DTD/svg11.dtd"><svg t="1661424532046" class="icon" viewBox="0 0 1820 1024" version="1.1" xmlns="http://www.w3.org/2000/svg" p-id="2750" xmlns:xlink="http://www.w3.org/1999/xlink"><defs><style type="text/css">@font-face { font-family: feedback-iconfont; src: url("//at.alicdn.com/t/font_1031158_u69w8yhxdu.woff2?t=1630033759944") format("woff2"), url("//at.alicdn.com/t/font_1031158_u69w8yhxdu.woff?t=1630033759944") format("woff"), url("//at.alicdn.com/t/font_1031158_u69w8yhxdu.ttf?t=1630033759944") format("truetype"); }
</style></defs><path d="M290.133333 484.977778c12.8 2.844444 25.6 7.111111 35.555556 12.8s18.488889 12.8 25.6 19.911111c7.111111 8.533333 12.8 17.066667 15.644444 28.444444 4.266667 9.955556 5.688889 21.333333 5.688889 34.133334 0 18.488889-4.266667 34.133333-11.377778 49.777777-8.533333 14.222222-19.911111 27.022222-34.133333 36.977778s-32.711111 17.066667-52.622222 22.755556c-21.333333 5.688889-44.088889 7.111111-69.688889 7.111111-11.377778 0-22.755556 0-35.555556-1.422222-27.022222-2.844444-52.622222-8.533333-78.222222-15.644445-12.8-4.266667-27.022222-9.955556-39.822222-15.644444l29.866667-62.577778c11.377778 4.266667 21.333333 8.533333 32.711111 11.377778s21.333333 5.688889 32.711111 8.533333 21.333333 4.266667 31.288889 4.266667c11.377778 1.422222 21.333333 1.422222 31.288889 1.422222 25.6 0 45.511111-4.266667 61.155555-11.377778 15.644444-7.111111 22.755556-18.488889 22.755556-31.288889 0-9.955556-2.844444-17.066667-9.955556-22.755555s-18.488889-9.955556-34.133333-12.8c-25.6-4.266667-45.511111-5.688889-62.577778-7.111111-15.644444 0-35.555556-2.844444-55.466667-8.533334-11.377778-2.844444-21.333333-5.688889-29.866666-11.377777-8.533333-5.688889-17.066667-11.377778-24.177778-19.911112-7.111111-7.111111-12.8-17.066667-17.066667-27.022222s-5.688889-21.333333-5.688889-34.133333c0-21.333333 5.688889-39.822222 15.644445-54.044445 9.955556-14.222222 22.755556-27.022222 38.4-35.555555 15.644444-8.533333 32.711111-15.644444 49.777778-18.488889 18.488889-4.266667 34.133333-5.688889 49.777777-5.688889s29.866667 1.422222 44.088889 2.844445 28.444444 4.266667 41.244445 7.111111c12.8 2.844444 25.6 5.688889 36.977778 9.955555 11.377778 4.266667 22.755556 8.533333 32.711111 14.222222L327.111111 423.822222c-18.488889-8.533333-36.977778-15.644444-55.466667-19.911111-18.488889-4.266667-38.4-7.111111-56.888888-7.111111-24.177778 0-44.088889 2.844444-61.155556 9.955556s-24.177778 17.066667-24.177778 31.288888c0 7.111111 2.844444 12.8 8.533334 18.488889s15.644444 9.955556 29.866666 11.377778c22.755556 4.266667 44.088889 7.111111 62.577778 7.111111 17.066667 2.844444 36.977778 4.266667 59.733333 9.955556z m223.288889 193.422222H440.888889V345.6h73.955555v332.8z m243.2-197.688889h192c0 9.955556 1.422222 19.911111 1.422222 28.444445v24.177777c0 25.6-4.266667 48.355556-12.8 68.266667-7.111111 19.911111-18.488889 36.977778-34.133333 51.2-14.222222 14.222222-34.133333 24.177778-55.466667 31.288889s-48.355556 9.955556-78.222222 9.955555c-27.022222 0-52.622222-4.266667-75.377778-12.8-22.755556-8.533333-42.666667-19.911111-59.733333-34.133333-17.066667-15.644444-29.866667-34.133333-38.4-56.888889-9.955556-22.755556-14.222222-48.355556-14.222222-76.8 0-32.711111 5.688889-59.733333 15.644444-83.911111 9.955556-22.755556 24.177778-42.666667 42.666667-56.888889 17.066667-14.222222 38.4-25.6 61.155556-32.711111 22.755556-7.111111 46.933333-9.955556 72.533333-9.955555 14.222222 0 28.444444 1.422222 42.666667 2.844444s28.444444 4.266667 42.666666 7.111111 27.022222 7.111111 38.4 12.8c12.8 4.266667 24.177778 9.955556 34.133334 15.644445L896 426.666667c-19.911111-9.955556-39.822222-17.066667-58.311111-21.333334S796.444444 398.222222 772.266667 398.222222c-15.644444 0-29.866667 1.422222-42.666667 5.688889-12.8 4.266667-25.6 11.377778-36.977778 19.911111-9.955556 8.533333-18.488889 21.333333-25.6 35.555556s-8.533333 32.711111-8.533333 54.044444c0 19.911111 2.844444 38.4 8.533333 52.622222s14.222222 27.022222 24.177778 35.555556 22.755556 15.644444 36.977778 19.911111c14.222222 4.266667 28.444444 7.111111 44.088889 7.111111s29.866667-1.422222 42.666666-5.688889c12.8-4.266667 22.755556-8.533333 31.288889-15.644444 8.533333-7.111111 15.644444-14.222222 19.911111-24.177778 4.266667-9.955556 7.111111-19.911111 7.111111-29.866667v-4.266666h-118.044444c1.422222 0 1.422222-68.266667 1.422222-68.266667z m492.088889-135.111111h96.711111l55.466667 332.8h-73.955556l-34.133333-238.933333h-1.422222l-62.577778 238.933333H1166.222222l-65.422222-238.933333h-1.422222L1066.666667 678.4h-71.111111l52.622222-332.8h95.288889l54.044444 184.888889h1.422222l49.777778-184.888889z m452.266667 332.8l-27.022222-66.844444h-162.133334l-27.022222 66.844444h-72.533333l132.266666-332.8h102.4l132.266667 332.8h-78.222222z m-106.666667-273.066667l-56.888889 143.644445h113.777778l-56.888889-143.644445z" p-id="2751"></path></svg>