<?xml version="1.0" standalone="no"?><!DOCTYPE svg PUBLIC "-//W3C//DTD SVG 1.1//EN" "http://www.w3.org/Graphics/SVG/1.1/DTD/svg11.dtd"><svg t="1661424568049" class="icon" viewBox="0 0 1820 1024" version="1.1" xmlns="http://www.w3.org/2000/svg" p-id="2904" xmlns:xlink="http://www.w3.org/1999/xlink"><defs><style type="text/css">@font-face { font-family: feedback-iconfont; src: url("//at.alicdn.com/t/font_1031158_u69w8yhxdu.woff2?t=1630033759944") format("woff2"), url("//at.alicdn.com/t/font_1031158_u69w8yhxdu.woff?t=1630033759944") format("woff"), url("//at.alicdn.com/t/font_1031158_u69w8yhxdu.ttf?t=1630033759944") format("truetype"); }
</style></defs><path d="M652.8 355.555556c-62.577778 0-128 21.333333-166.4 55.466666-28.444444 25.6-45.511111 64-45.511111 102.4s17.066667 76.8 45.511111 102.4c39.822222 35.555556 100.977778 55.466667 166.4 55.466667s128-19.911111 166.4-55.466667c27.022222-25.6 44.088889-64 44.088889-102.4s-15.644444-76.8-44.088889-102.4c-42.666667-38.4-98.133333-55.466667-166.4-55.466666z m88.177778 240.355555c-24.177778 22.755556-55.466667 34.133333-88.177778 34.133333s-65.422222-11.377778-88.177778-34.133333c-22.755556-22.755556-32.711111-52.622222-32.711111-82.488889-1.422222-29.866667 11.377778-61.155556 32.711111-82.488889 51.2-45.511111 128-45.511111 179.2 0 22.755556 22.755556 32.711111 52.622222 32.711111 82.488889s-14.222222 59.733333-35.555555 82.488889z m-416.711111-100.977778c-11.377778-5.688889-24.177778-9.955556-34.133334-12.8-22.755556-5.688889-73.955556-12.8-98.133333-15.644444-28.444444-1.422222-59.733333-5.688889-86.755556-12.8-9.955556-2.844444-15.644444-9.955556-17.066666-19.911111 0-9.955556 7.111111-18.488889 15.644444-24.177778 25.6-12.8 52.622222-18.488889 79.644445-17.066667 31.288889 0 64 5.688889 93.866666 18.488889 8.533333 4.266667 15.644444 8.533333 22.755556 14.222222 11.377778 9.955556 19.911111 22.755556 22.755555 36.977778h35.555556v-96.711111h-39.822222v11.377778c0 4.266667-4.266667 8.533333-11.377778 4.266667-39.822222-19.911111-83.911111-28.444444-128-28.444445-36.977778 0-73.955556 7.111111-108.088889 22.755556-29.866667 14.222222-56.888889 35.555556-56.888889 73.955555 0 19.911111 7.111111 38.4 21.333334 52.622222 17.066667 17.066667 38.4 27.022222 61.155555 29.866667 17.066667 4.266667 54.044444 9.955556 89.6 14.222222s71.111111 7.111111 85.333333 11.377778c11.377778 2.844444 29.866667 7.111111 29.866667 28.444445-1.422222 14.222222-9.955556 25.6-24.177778 28.444444-22.755556 9.955556-46.933333 14.222222-72.533333 12.8-28.444444-1.422222-58.311111-5.688889-85.333333-15.644444-19.911111-5.688889-35.555556-18.488889-49.777778-32.711112-7.111111-9.955556-9.955556-21.333333-9.955556-31.288888H19.911111v110.933333h44.088889v-14.222222c0-2.844444 2.844444-7.111111 5.688889-7.111111 1.422222 0 2.844444 0 2.844444 1.422222 21.333333 8.533333 41.244444 17.066667 64 21.333333 22.755556 5.688889 44.088889 8.533333 66.844445 8.533333 29.866667 0 61.155556-4.266667 89.6-12.8 19.911111-5.688889 36.977778-14.222222 52.622222-25.6 18.488889-14.222222 28.444444-35.555556 27.022222-58.311111 0-21.333333-8.533333-41.244444-24.177778-56.888889-4.266667-8.533333-14.222222-14.222222-24.177777-19.911111z m854.755555-86.755555h35.555556c17.066667 0 19.911111 7.111111 19.911111 22.755555l2.844444 118.044445-193.422222-176.355556h-137.955555v34.133334h29.866666c22.755556 0 24.177778 12.8 24.177778 24.177777v164.977778c0 9.955556 0 24.177778-14.222222 24.177778h-36.977778V654.222222h162.133333v-34.133333h-39.822222c-15.644444 0-17.066667-7.111111-17.066667-22.755556v-140.8l223.288889 199.111111h56.888889l-2.844444-224.711111c0-17.066667 1.422222-22.755556 18.488889-22.755555h35.555555v-34.133334H1179.022222v34.133334z m470.755556-35.555556v34.133334h24.177778c1.422222 0 2.844444 0 4.266666 1.422222 2.844444 2.844444 4.266667 7.111111 1.422222 9.955555 0 0-66.844444 76.8-68.266666 78.222223-1.422222 1.422222-1.422222 1.422222-1.422222 0l-66.844445-78.222223c-4.266667-5.688889-1.422222-11.377778 4.266667-11.377777h24.177778v-34.133334H1376.711111v35.555556h34.133333c12.8 0 24.177778 7.111111 29.866667 15.644444 4.266667 5.688889 103.822222 118.044444 105.244445 120.888889 2.844444 2.844444 2.844444 2.844444 2.844444 5.688889v55.466667c0 2.844444 0 5.688889-1.422222 7.111111-1.422222 2.844444-4.266667 5.688889-7.111111 7.111111h-42.666667V654.222222h192v-35.555555h-45.511111c-2.844444-1.422222-5.688889-4.266667-8.533333-7.111111 0-2.844444-1.422222-5.688889-1.422223-7.111112v-55.466666c0-1.422222 0-4.266667 1.422223-5.688889l106.666666-122.311111c5.688889-9.955556 17.066667-15.644444 27.022222-14.222222h35.555556v-34.133334H1649.777778z" p-id="2905"></path></svg>