<?xml version="1.0" standalone="no"?><!DOCTYPE svg PUBLIC "-//W3C//DTD SVG 1.1//EN" "http://www.w3.org/Graphics/SVG/1.1/DTD/svg11.dtd"><svg t="1661424592932" class="icon" viewBox="0 0 1820 1024" version="1.1" xmlns="http://www.w3.org/2000/svg" p-id="3058" xmlns:xlink="http://www.w3.org/1999/xlink"><defs><style type="text/css">@font-face { font-family: feedback-iconfont; src: url("//at.alicdn.com/t/font_1031158_u69w8yhxdu.woff2?t=1630033759944") format("woff2"), url("//at.alicdn.com/t/font_1031158_u69w8yhxdu.woff?t=1630033759944") format("woff"), url("//at.alicdn.com/t/font_1031158_u69w8yhxdu.ttf?t=1630033759944") format("truetype"); }
</style></defs><path d="M362.666667 381.155556l-76.8 263.111111h64l15.644444-54.044445H469.333333l15.644445 54.044445h64l-76.8-263.111111h-109.511111z m19.911111 149.333333l25.6-89.6h17.066666l25.6 89.6h-68.266666zM36.977778 440.888889h92.444444v203.377778h62.577778V440.888889H284.444444v-59.733333H36.977778V440.888889zM1365.333333 375.466667c-48.355556 0-95.288889 4.266667-115.2 52.622222-7.111111 17.066667-7.111111 35.555556-7.111111 83.911111s1.422222 66.844444 7.111111 83.911111c19.911111 49.777778 65.422222 52.622222 115.2 52.622222s95.288889-4.266667 115.2-52.622222c7.111111-17.066667 7.111111-35.555556 7.111111-83.911111s-1.422222-66.844444-7.111111-83.911111c-19.911111-49.777778-66.844444-52.622222-115.2-52.622222z m58.311111 189.155555c-5.688889 19.911111-27.022222 25.6-56.888888 25.6s-51.2-5.688889-56.888889-25.6c-2.844444-8.533333-2.844444-25.6-2.844445-52.622222s0-44.088889 2.844445-52.622222c5.688889-19.911111 27.022222-25.6 56.888889-25.6s51.2 5.688889 56.888888 25.6c2.844444 8.533333 2.844444 25.6 2.844445 52.622222s0 44.088889-2.844445 52.622222z m-685.511111-42.666666l-46.933333-140.8h-92.444444v263.111111h62.577777V462.222222l45.511111 136.533334h62.577778l45.511111-136.533334v182.044445h62.577778V381.155556h-92.444444c1.422222 0-46.933333 140.8-46.933334 140.8z m982.755556-140.8v163.555555l-89.6-163.555555h-73.955556v263.111111h62.577778V479.288889l89.6 163.555555h73.955556V381.155556H1720.888889z m-544.711111 142.222222c4.266667-9.955556 5.688889-21.333333 5.688889-49.777778 0-27.022222-1.422222-38.4-5.688889-49.777778-9.955556-29.866667-38.4-44.088889-82.488889-44.088889h-139.377778v263.111111h62.577778v-76.8h72.533333l38.4 76.8h68.266667l-45.511111-89.6c12.8-5.688889 21.333333-17.066667 25.6-29.866666z m-61.155556-27.022222c-5.688889 8.533333-15.644444 9.955556-29.866666 9.955555h-68.266667V440.888889h68.266667c14.222222 0 24.177778 1.422222 29.866666 9.955555 2.844444 4.266667 4.266667 8.533333 4.266667 22.755556s-1.422222 18.488889-4.266667 22.755556z" fill="#005BAC" p-id="3059"></path></svg>