<?xml version="1.0" standalone="no"?><!DOCTYPE svg PUBLIC "-//W3C//DTD SVG 1.1//EN" "http://www.w3.org/Graphics/SVG/1.1/DTD/svg11.dtd"><svg t="1661424617796" class="icon" viewBox="0 0 1024 1024" version="1.1" xmlns="http://www.w3.org/2000/svg" p-id="3208" xmlns:xlink="http://www.w3.org/1999/xlink"><defs><style type="text/css">@font-face { font-family: feedback-iconfont; src: url("//at.alicdn.com/t/font_1031158_u69w8yhxdu.woff2?t=1630033759944") format("woff2"), url("//at.alicdn.com/t/font_1031158_u69w8yhxdu.woff?t=1630033759944") format("woff"), url("//at.alicdn.com/t/font_1031158_u69w8yhxdu.ttf?t=1630033759944") format("truetype"); }
</style></defs><path d="M976.74046293 984.11710573a1134.28247421 1134.28247421 0 0 0-928.90204425 0V55.21506148h928.90204425z" fill="#141E8C" p-id="3209"></path><path d="M157.99806495 338.64816106a47.58143977 47.58143977 0 0 0-47.19059692 44.29546942h-20.84492726v-65.57466562h162.56147706s1.30280813 50.66475237-46.75632798 104.36938993c0 0-45.74303386 53.12561232-46.90108568 76.43139815h26.34567101c37.78143017 0 41.68985316-44.29546942 41.68985316-44.29546941h21.71346511v65.7194219H82.43520599s-6.07977034-49.79621317 51.53329158-110.15964766c0 0 35.46532653-39.66326352 43.71644284-70.93065302zM572.00147054 519.44894912v-21.42395248h-4.92171989a16.18376928 16.18376928 0 0 1-16.21271999-16.21272135v-126.80663657a16.18376928 16.18376928 0 0 1 16.21271999-16.21272136h4.92171989v-21.4239525h-107.84354538v21.4239525h4.9217199a16.21272135 16.21272135 0 0 1 16.35747628 16.21272136v126.80663657a16.21272135 16.21272135 0 0 1-16.35747628 16.21272135h-4.9217199v21.42395248zM441.86543483 519.59370543v-65.7194219h-21.7134651s-4.05318068 44.29546942-41.83460947 44.29546941h-21.71346512v-68.90406339h7.67209108a16.25614743 16.25614743 0 0 1 16.35747629 16.35747767v8.10636001h21.42395249v-70.78589675h-21.42395249v8.25111628a16.25614743 16.25614743 0 0 1-16.35747629 16.35747768h-7.67209108v-68.90406339h21.71346512c37.78143017 0 41.83460947 44.29546942 41.83460947 44.29546943h21.7134651V317.22420855H270.61857255v21.56870881h4.92171852A16.18376928 16.18376928 0 0 1 291.75301104 355.00563872v126.80663657a16.18376928 16.18376928 0 0 1-16.21271997 16.21272135h-4.92171852v21.42395248zM685.20100198 338.64816106a47.26297645 47.26297645 0 0 1 47.04584198 44.29546942h20.98968219v-65.57466562H597.91287125s-24.60859397 32.13592874 39.66326352 104.36938993c0 0 45.59827756 53.12561232 46.75632938 76.43139815h-26.2009147c-37.78143017 0-41.83460947-44.29546942-41.83461086-44.29546941h-21.85822142v65.7194219h156.62646302s28.51701835-30.68836431-41.97936577-110.15964766c0 0-36.91289095-37.92618649-43.7164442-70.93065302zM866.8703279 338.64816106a47.3932574 47.3932574 0 0 1 47.04584197 44.29546942h20.84492591v-65.57466562H779.58219856s-24.60859397 32.13592874 39.66326212 104.36938993c0 0 45.59827756 53.12561232 46.75632939 76.43139815h-26.20091472c-37.78143017 0-41.83460947-44.29546942-41.83461085-44.29546941h-21.71346512v65.7194219h156.62646304s28.37226067-30.68836431-41.97936577-110.15964766c0 0-36.91289095-37.92618649-43.57168653-70.93065302z" fill="#FFFFFF" p-id="3210"></path></svg>